<svg width="53" height="49" viewBox="0 0 53 49" fill="none" xmlns="http://www.w3.org/2000/svg">
<path d="M15.9011 26.1657C12.6735 26.2836 9.07591 26.4644 6.40725 24.3734C3.93538 22.4474 1.73118 19.5703 2.06181 16.2687C2.15628 15.3253 2.36883 14.7436 3.38434 15.1445C4.95877 15.7577 6.1081 17.4557 7.17085 18.6427C8.52643 20.1957 10.0262 21.617 11.6501 22.8876C12.7994 23.7602 14.0118 24.5227 15.2083 25.3796L15.6492 25.7019L15.8145 25.8277H15.909C15.9342 25.8279 15.959 25.8345 15.9811 25.8468C16.0031 25.8592 16.0216 25.877 16.0349 25.8984C16.039 25.9165 16.039 25.9353 16.0349 25.9534C16.0444 25.9992 16.0358 26.0469 16.0108 26.0865C15.9859 26.1261 15.9465 26.1545 15.9011 26.1657V26.1657Z" fill="#8F00FF"/>
<path d="M16.0664 25.9535C13.2245 25.9063 10.1622 26.0321 7.89505 24.114C6.85475 23.191 5.965 22.1115 5.25788 20.9146C4.93512 20.3801 3.9511 18.7921 4.35258 18.1554C5.09256 17.0155 8.47759 21.6771 8.94205 22.0859C10.7226 23.6985 12.8931 24.8201 15.2398 25.3403L15.6806 25.6626C14.0166 25.3261 12.4203 24.715 10.9573 23.8546C8.94205 22.6597 7.80846 20.8832 6.23403 19.2323C5.89553 18.8707 4.86427 17.6601 4.47853 18.4462C4.22662 18.9415 5.17128 20.498 5.37596 20.8045C6.04941 21.9385 6.89075 22.9641 7.87144 23.8468C10.1307 25.8199 13.1773 25.7491 16.0349 25.867C16.0559 25.8909 16.0672 25.9217 16.0664 25.9535V25.9535Z" fill="white"/>
<path d="M17.6803 28.131L17.6095 28.5083C17.6064 28.5225 17.5997 28.5358 17.59 28.5468C17.5804 28.5578 17.5681 28.5662 17.5544 28.5712C17.539 28.579 17.5221 28.5836 17.5049 28.5847C17.4876 28.5857 17.4703 28.5832 17.4541 28.5773C17.4378 28.5714 17.423 28.5622 17.4105 28.5504C17.3979 28.5385 17.388 28.5242 17.3812 28.5083C17.3733 28.4827 17.3733 28.4553 17.3812 28.4297C17.3812 28.4297 17.3812 28.4297 17.3812 28.3825V28.2724C16.8144 26.1421 16.594 23.9253 15.9878 21.7871C15.3817 19.6489 14.6968 17.7544 14.2796 15.6791C14.0198 14.3663 13.1066 7.8181 16.0114 8.6042C17.2946 8.9658 18.1763 10.8289 18.6644 11.9373C19.3006 13.433 19.6632 15.0304 19.735 16.6539C19.9711 20.6394 18.499 24.2869 17.6803 28.131Z" fill="#8F00FF"/>
<path d="M18.6091 19.9398C18.6713 18.4394 18.5148 16.938 18.1446 15.4826C18.0187 14.9795 17.3574 12.5583 16.5702 12.6212C16.0349 12.6212 15.9483 13.6981 15.9011 14.044C15.72 15.5061 16.1923 16.9997 16.4757 18.4226C17.0452 21.3222 17.4004 24.2596 17.5385 27.2112C17.5385 27.392 17.4834 27.5807 17.4676 27.7693C17.4519 27.958 17.4676 28.0759 17.4047 28.2331C17.3417 28.3904 17.4047 28.3353 17.4047 28.3903C17.4047 28.4454 17.4047 28.469 17.4047 28.5161C17.4198 28.5449 17.445 28.5672 17.4754 28.5787C17.5059 28.5903 17.5395 28.5904 17.57 28.579C17.57 28.4611 17.57 28.3432 17.6251 28.2253C17.6251 28.3196 17.6251 28.4139 17.6251 28.5161C17.6251 28.4061 17.6251 28.3118 17.6802 28.2096C17.6839 28.1861 17.6839 28.1622 17.6802 28.1388C17.6802 27.9737 17.6802 27.8086 17.6802 27.6514C18.1429 25.1016 18.4531 22.5264 18.6091 19.9398V19.9398ZM17.633 26.5823C17.5542 24.8608 17.381 23.1392 17.137 21.4333C16.9402 20.0498 16.6804 18.6898 16.3498 17.3299C16.1623 16.5552 16.0386 15.7664 15.9798 14.9716C15.9798 14.3742 16.0428 12.1573 17.1842 13.5252C17.9715 14.5235 18.2155 16.6696 18.31 17.8723C18.4097 19.2318 18.3834 20.5976 18.2312 21.9522C18.121 23.5244 17.8612 25.0573 17.633 26.5823V26.5823Z" fill="white"/>
<path d="M19.4203 36.9746C19.3811 36.9797 19.3414 36.9797 19.3022 36.9746C16.3501 36.8252 12.4219 37.1004 9.96579 35.1508C8.14732 33.7123 6.36821 30.8666 6.94288 28.4533C7.59627 25.7333 11.2726 28.9957 12.2487 29.7818C14.7881 31.9894 17.2033 34.3355 19.4832 36.8095V36.8645C19.5541 36.9353 19.4911 36.9589 19.4203 36.9746Z" fill="#8F00FF"/>
<path d="M19.5222 36.8882L19.0105 36.5737C17.074 35.3474 15.1847 34.0504 13.3662 32.6432C12.9017 32.2973 9.57968 29.3416 9.08373 30.395C8.78459 31.0396 9.87095 32.3367 10.2252 32.7533C10.8565 33.5389 11.6148 34.2138 12.4688 34.75C14.4368 35.9763 16.8221 36.2357 19.0499 36.8253L19.3648 36.9118H19.4199C19.4907 36.9589 19.5458 36.9353 19.5222 36.8882ZM13.6811 35.2138C12.7451 34.7823 11.8862 34.2008 11.1384 33.4922C10.6424 33.0206 8.8948 31.2597 9.35925 30.5365C9.61116 30.1513 9.81584 30.3557 10.2803 30.5837C10.4971 30.6918 10.7074 30.8126 10.9101 30.9453C11.406 31.2676 11.8626 31.6528 12.3192 32.0144C13.1064 32.6668 13.9487 33.2878 14.7911 33.901C16.1608 34.8993 17.5699 35.8348 19.0105 36.731C17.2708 36.1886 15.3736 35.9684 13.6811 35.2138Z" fill="white"/>
<path d="M24.8124 30.9059C24.0435 34.2823 22.2839 37.3532 19.7585 39.726H19.7034C19.6747 39.7346 19.644 39.7339 19.6157 39.724C19.5874 39.7141 19.563 39.6956 19.5459 39.6709C19.5254 39.6468 19.5142 39.6162 19.5142 39.5845C19.5142 39.5528 19.5254 39.5221 19.5459 39.498L19.6955 39.3486C20.1836 35.3474 20.7268 31.3619 21.1361 27.3449C21.2306 26.3937 21.9785 20.3722 23.8284 21.3548C24.9777 21.9601 25.0486 24.4284 25.1509 25.5368C25.3137 27.3333 25.1995 29.144 24.8124 30.9059V30.9059Z" fill="#8F00FF"/>
<path d="M23.7418 25.5368C23.6394 25.1988 23.4662 24.8529 23.0884 25.0887C22.372 25.5368 22.0886 28.3746 21.9627 29.1529C21.4667 32.3916 20.7031 35.4967 19.9238 38.6568C19.8608 38.9241 19.7899 39.1914 19.727 39.4429L19.5459 39.6788C19.5616 39.7027 19.5847 39.721 19.6116 39.7309C19.6385 39.7408 19.6679 39.7418 19.6955 39.7338C19.6955 39.7338 19.6955 39.6788 19.6955 39.6552C19.6955 39.6316 19.8608 39.4429 19.9316 39.3329C21.1967 37.6025 22.1822 35.6847 22.8522 33.6494C23.2715 32.3713 23.5616 31.0546 23.7182 29.7188C23.8835 28.4611 24.1196 26.7474 23.7418 25.5368ZM19.9553 39.1363C19.9159 39.1869 19.8791 39.2393 19.845 39.2936C19.845 39.1835 19.9159 39.0813 19.9474 38.9713C20.7053 36.5597 21.3074 34.102 21.7501 31.6134C21.9627 30.3477 22.0965 29.0742 22.3641 27.8243C22.4665 27.2898 22.7341 25.7805 23.1514 25.5368C23.5686 25.2931 23.5843 25.8748 23.6316 26.2207C23.6471 26.5271 23.6471 26.8341 23.6316 27.1404C23.7048 31.4263 22.418 35.6254 19.9553 39.1363Z" fill="white"/>
<path d="M20.2465 48.3652H19.6324C19.6324 47.8464 19.6324 47.3275 19.6324 46.793C19.5616 44.702 19.4829 42.6109 19.3569 40.5042C19.2861 39.3172 19.1995 38.1459 19.0735 36.9588C19.0696 36.917 19.0696 36.8749 19.0735 36.8331C19.0735 36.7388 19.0735 36.6444 19.0342 36.5501C18.9948 36.4557 19.0342 36.3378 19.0342 36.2356C18.769 33.5801 18.0862 30.9829 17.011 28.5397C16.6331 27.7536 16.2238 26.9675 15.7908 26.1814L15.6727 25.9613V25.8984L15.5468 25.6626C15.5081 25.6078 15.4739 25.5499 15.4445 25.4896C14.0747 23.092 12.516 20.773 11.036 18.4933L9.76862 16.5045C9.73758 16.4672 9.71357 16.4246 9.69777 16.3787C9.65922 16.3366 9.62737 16.2889 9.6033 16.2372C7.7376 13.3051 5.91126 10.3493 3.9747 7.4722C3.90385 7.36214 4.07704 7.26782 4.14789 7.37787C5.45467 9.28024 6.80081 11.159 8.14695 13.0535L8.68226 13.8396L9.63479 15.2782C10.3354 16.2765 11.0203 17.2749 11.6973 18.2889C13.6885 21.1006 15.5026 24.0331 17.1291 27.0697C17.2472 27.3055 17.3574 27.5335 17.4676 27.7693C17.5778 28.0052 17.6093 28.0602 17.6644 28.2017C17.7195 28.3432 17.8218 28.5397 17.9006 28.7048C19.0986 31.6603 19.7699 34.8022 19.8844 37.9887C19.8844 38.2088 19.8844 38.4367 19.9237 38.6568V38.9713C19.9198 39.0262 19.9198 39.0814 19.9237 39.1364C19.9201 39.2071 19.9201 39.2779 19.9237 39.3486V39.3486C19.9237 39.3958 19.9237 39.4508 19.9237 39.5058V40.0797C20.0103 42.1707 20.0654 44.2696 20.1048 46.3685C20.1678 47.0288 20.215 47.6944 20.2465 48.3652Z" fill="#8F00FF"/>
<path d="M2.62873 10.4437C1.05429 8.27404 -1.05545 3.80112 1.32195 1.47426C1.75384 1.02234 2.33824 0.746456 2.96208 0.699988C3.58593 0.653521 4.20485 0.839765 4.69911 1.2227C5.95865 2.13458 6.52545 3.84828 6.92693 5.27112C8.02116 9.06799 8.7454 12.9356 10.0758 16.6539C10.0758 16.6539 10.186 16.9683 10.2254 17.0548C10.2647 17.1413 10.1309 17.1649 10.0994 17.0548C10.0679 16.9447 10.0128 16.8111 9.96559 16.6932C7.42288 14.8616 4.54166 13.0142 2.62873 10.4437Z" fill="#8F00FF"/>
<path d="M10.1308 16.6618L10.0915 16.5989C9.54319 15.6934 9.04901 14.7563 8.61151 13.7925C7.69275 11.7721 6.90393 9.69518 6.24986 7.57448C5.99008 6.78837 4.825 2.77138 3.40013 4.3593C2.80185 5.02749 2.88844 6.21452 2.98291 7.03206C3.14371 8.34854 3.56375 9.62022 4.21884 10.7739C5.58806 12.9985 7.41876 14.9044 9.58765 16.3631L9.87105 16.5832L9.92616 16.6775L9.97339 16.7483C9.98524 16.7533 9.99799 16.7559 10.0109 16.7558C10.0237 16.7557 10.0365 16.7531 10.0483 16.7479C10.0601 16.7428 10.0707 16.7352 10.0795 16.7258C10.0882 16.7164 10.095 16.7053 10.0993 16.6932C10.1133 16.6869 10.1245 16.6758 10.1308 16.6618V16.6618ZM9.50106 16.2216C7.75878 14.9443 6.22406 13.4064 4.95095 11.6622C4.31024 10.7378 3.81142 9.72301 3.47098 8.65143C3.32082 8.17173 3.21282 7.67986 3.14822 7.18143C3.09567 6.81178 3.0746 6.43835 3.08525 6.06515C3.08525 5.27905 3.44737 4.35144 3.93544 4.26497C4.42352 4.1785 4.72266 4.50868 5.13201 5.19259C5.26424 5.42649 5.38253 5.66797 5.48626 5.91579C5.74432 6.53173 5.96771 7.16159 6.15539 7.80243C6.49389 8.8558 6.8324 9.90918 7.21026 10.9468C7.47004 11.6543 7.7377 12.3461 8.04471 13.0379C8.55466 14.2226 9.1465 15.3704 9.81595 16.4731C9.70574 16.3945 9.6034 16.3081 9.50106 16.2216V16.2216Z" fill="white"/>
<path d="M33.8026 19.6411C32.7792 21.5513 31.622 23.3908 30.4491 25.2067C29.7878 26.2443 29.1108 27.2663 28.4496 28.3039C27.7883 29.3416 26.8751 30.5679 26.7098 31.9436C26.6973 32.0029 26.6789 32.0609 26.6547 32.1165V32.1165C26.6302 32.1327 26.6017 32.1417 26.5724 32.1426C26.5431 32.1434 26.5141 32.1361 26.4887 32.1214C26.4633 32.1067 26.4426 32.0852 26.4288 32.0593C26.415 32.0334 26.4087 32.0042 26.4107 31.975C26.4107 31.975 26.4107 31.9121 26.4107 31.8807C26.3644 31.4785 26.3644 31.0723 26.4107 30.6701C26.3571 27.3229 26.89 23.9921 27.9851 20.8281C28.6348 18.9316 29.5321 17.129 30.6538 15.4669C31.5748 14.1541 32.9288 12.181 34.4481 11.4814C35.8258 10.8603 36.0226 12.7863 36.0226 13.7139C35.873 15.8206 34.7394 17.833 33.8026 19.6411Z" fill="#8F00FF"/>
<path d="M33.6213 14.6886C32.8892 14.4056 31.4408 16.5674 30.7795 17.4871C29.7471 18.9374 28.8958 20.5081 28.2447 22.1644C27.1008 25.1452 26.4674 28.2969 26.3711 31.4876C26.3711 31.6133 26.3711 31.747 26.3711 31.8727V31.9671C26.367 31.9961 26.3716 32.0257 26.3842 32.0522C26.3969 32.0787 26.4171 32.1008 26.4422 32.1159C26.4674 32.131 26.4965 32.1384 26.5259 32.1371C26.5552 32.1358 26.5835 32.1258 26.6072 32.1086C26.6624 31.8492 26.7175 31.5898 26.7804 31.3225C26.8434 31.0552 26.9064 30.8665 26.9772 30.6386C27.8085 28.1725 28.8983 25.8011 30.2284 23.5637C31.6612 20.9538 34.5896 15.0738 33.6213 14.6886ZM26.6466 31.0945C26.56 31.4325 26.4892 31.7784 26.4262 32.1164L26.4734 31.3303C26.6265 28.5262 27.1561 25.7553 28.0479 23.092C28.5668 21.5944 29.2479 20.1578 30.0789 18.8077C30.5208 18.0821 31.0099 17.3862 31.5431 16.7246C31.7635 16.4416 33.0624 14.6728 33.4796 14.948C33.7709 15.1366 33.1569 16.9447 33.1411 16.984C33.0231 17.3456 32.8892 17.7072 32.7397 18.061C32.4484 18.7999 32.1099 19.5152 31.7635 20.2227C30.9763 21.7556 30.1891 23.2492 29.4019 24.7585C28.2405 26.7567 27.3159 28.883 26.6466 31.0945V31.0945Z" fill="white"/>
<path d="M43.147 29.6403C40.7853 31.7392 37.7467 32.8712 34.7395 33.6809C33.1651 34.1211 31.5041 34.4669 29.8824 34.8757C28.4161 35.1496 26.9813 35.571 25.5999 36.1335C25.5372 36.1602 25.4767 36.1917 25.4189 36.2278C25.0426 36.4124 24.6887 36.6392 24.364 36.9039C24.3517 36.9095 24.3382 36.9124 24.3246 36.9124C24.3111 36.9124 24.2976 36.9095 24.2853 36.9039L24.1987 36.9982C24.1987 36.9982 24.1357 36.9982 24.1515 36.9982C24.1755 36.9606 24.1965 36.9212 24.2144 36.8803V36.8803C24.2046 36.8651 24.1994 36.8473 24.1994 36.8292C24.1994 36.8111 24.2046 36.7933 24.2144 36.7781V36.7781L24.2853 36.6602C25.8597 33.7437 29.1975 31.4798 31.9213 29.8211C34.599 28.062 37.7083 27.0696 40.9113 26.9518C41.6985 26.9518 43.6115 26.826 44.1074 27.675C44.6033 28.524 43.6508 29.2001 43.147 29.6403Z" fill="#8F00FF"/>
<path d="M41.0685 28.8463C40.6749 27.9659 38.1873 28.8464 37.5732 28.9957C35.7296 29.5986 33.9413 30.3587 32.228 31.2675C29.3822 32.5961 26.7629 34.3628 24.4661 36.503V36.503L24.3716 36.558C24.3716 36.6052 24.3244 36.6445 24.3008 36.6838C24.2903 36.7002 24.2847 36.7193 24.2847 36.7388C24.2847 36.7583 24.2903 36.7774 24.3008 36.7938L24.4346 36.7231C24.781 36.5187 25.1352 36.3379 25.4973 36.1571L25.6784 36.0706C28.2161 34.9499 30.8217 33.989 33.4797 33.1935C35.3246 32.6106 37.1092 31.8525 38.8092 30.9295C39.1634 30.7566 41.3991 29.5931 41.0685 28.8463ZM39.9349 30.0255C37.3292 32.0379 33.8418 32.8948 30.7638 33.9088C28.6693 34.5369 26.6417 35.3689 24.7101 36.3929C26.8494 34.5214 29.2327 32.9481 31.7951 31.7156C33.2277 30.9571 34.7022 30.2799 36.2114 29.6875C37.0272 29.3619 37.8667 29.0991 38.7226 28.9014C39.2381 28.7755 39.7664 28.7096 40.297 28.7048C41.2968 28.7834 40.3836 29.6796 39.9349 30.0255Z" fill="white"/>
<path d="M21.5223 42.9726C21.4974 42.9879 21.4688 42.996 21.4396 42.996C21.4104 42.996 21.3818 42.9879 21.3569 42.9726C21.3534 42.9934 21.3534 43.0147 21.3569 43.0355C21.3647 43.0441 21.369 43.0553 21.369 43.0669C21.369 43.0785 21.3647 43.0897 21.3569 43.0984C21.3465 43.1055 21.3341 43.1093 21.3215 43.1093C21.3089 43.1093 21.2965 43.1055 21.2861 43.0984C19.7825 39.6081 18.5781 35.6147 18.641 31.7942C18.6446 30.1897 18.9105 28.5966 19.4283 27.0776C19.7982 26.0321 20.5461 23.9332 21.7191 23.5323C24.0807 22.7462 23.2226 29.7346 23.0888 30.7959C22.8448 32.7218 22.4354 34.6242 22.1599 36.5501C21.8529 38.6569 21.7033 40.7794 21.5537 42.9018C21.5485 42.9274 21.5377 42.9516 21.5223 42.9726V42.9726Z" fill="#8F00FF"/>
<path d="M21.5221 42.9725C21.5221 42.776 21.4591 42.5716 21.4355 42.3672C20.9767 39.1148 21.0218 35.8112 21.5693 32.5724C21.8931 30.9453 22.08 29.294 22.1282 27.6357C22.1282 27.2269 22.2069 25.694 21.341 26.1578C20.9001 26.3937 20.1444 29.0821 20.0106 29.7896C19.7198 31.4261 19.6325 33.0921 19.7508 34.7499C19.9044 37.5275 20.4096 40.2745 21.2544 42.9254L21.3252 43.1612C21.333 43.1526 21.3373 43.1414 21.3373 43.1298C21.3373 43.1182 21.333 43.107 21.3252 43.0983C21.3208 43.0776 21.3208 43.0561 21.3252 43.0354C21.3601 43.0504 21.3993 43.0523 21.4354 43.0407C21.4716 43.0292 21.5024 43.005 21.5221 42.9725V42.9725ZM20.05 36.0784C19.8585 34.442 19.84 32.7899 19.9949 31.1496C20.0673 30.497 20.175 29.8488 20.3176 29.2079C20.427 28.7057 20.5717 28.2119 20.7506 27.73C21.215 26.5666 21.4276 26.2993 21.6401 26.3386C21.8527 26.3779 21.892 26.5509 21.9629 27.3841C21.9999 27.9218 21.9814 28.4618 21.9078 28.9957C21.8291 29.7818 21.7189 30.5128 21.5929 31.2675C21.3567 32.7768 21.097 34.2861 20.971 35.8112C20.783 37.9976 20.8836 40.1992 21.2701 42.3594C20.6897 40.3032 20.2816 38.2022 20.05 36.0784V36.0784Z" fill="white"/>
<path d="M31.8739 39.9225C31.1022 41.0406 30.098 41.9791 28.9297 42.6739C26.6704 44.136 24.1277 45.0951 21.766 46.4C21.4197 46.5887 21.0654 46.793 20.7269 47.0053C20.7269 47.0053 20.3412 47.3826 20.3569 47.3512L20.6088 46.9345C21.396 45.6925 23.8128 41.9507 25.6785 40.2763C26.8232 39.2069 28.0917 38.278 29.4571 37.5092C30.1184 37.1712 31.622 36.4716 32.3384 37.0218C33.0547 37.5721 32.2281 39.3251 31.8739 39.9225Z" fill="#8F00FF"/>
<path d="M30.8821 38.5861C30.2208 37.7214 26.4579 40.8265 25.962 41.2274C24.1195 42.6935 22.4784 44.3957 21.0812 46.2899C20.9159 46.5022 20.7663 46.7222 20.6089 46.9345L20.3491 47.3511C20.3491 47.3511 20.6876 47.0367 20.727 47.0052L20.9002 46.8952L21.7661 46.4C23.2933 45.3309 24.8441 44.2853 26.3477 43.1769C27.4408 42.392 28.47 41.5219 29.4257 40.5749C29.6383 40.3548 31.1655 38.9634 30.8821 38.5861ZM30.1972 39.608C27.6309 42.5874 24.0727 44.3247 20.971 46.683L20.8214 46.793L21.0025 46.5572C22.193 45.0149 23.5267 43.5883 24.9858 42.2965C25.8788 41.516 26.8173 40.7889 27.7962 40.119C28.3181 39.7274 28.8651 39.3703 29.4336 39.0499C29.6855 38.9241 30.394 38.6018 30.5357 38.759C30.6774 38.9163 30.3704 39.4115 30.1972 39.6473V39.608Z" fill="white"/>
<path d="M51.5858 14.7752C46.7444 19.6647 38.9904 19.8062 33.8341 24.3499L33.3696 24.7822C33.3545 24.7965 33.3361 24.8069 33.3161 24.8123C33.296 24.8178 33.2749 24.8182 33.2546 24.8136C33.2343 24.8089 33.2155 24.7993 33.1999 24.7856C33.1843 24.7719 33.1723 24.7545 33.165 24.7351C33.1551 24.7198 33.1499 24.7021 33.1499 24.684C33.1499 24.6658 33.1551 24.6481 33.165 24.6329C33.1978 24.5948 33.2348 24.5605 33.2752 24.5307C35.2598 21.1386 37.8381 18.1299 40.8876 15.6477C43.4145 13.5017 46.3981 11.7172 49.7674 11.3949C50.5546 11.3085 52.2235 11.0884 52.7667 11.9688C53.3098 12.8492 52.1841 14.1777 51.5858 14.7752Z" fill="#8F00FF"/>
<path d="M49.1851 14.1383C48.9489 13.7689 48.3428 13.8711 48.0043 13.9104C47.1648 13.9988 46.3397 14.1916 45.5481 14.4842C43.9207 15.081 42.3922 15.9183 41.0138 16.9683C38.5975 18.6863 36.4053 20.6986 34.4877 22.9584C34.0601 23.462 33.6581 23.9867 33.2833 24.5306L33.1416 24.735C33.1502 24.7532 33.1629 24.7693 33.1786 24.782C33.1944 24.7946 33.2128 24.8036 33.2325 24.8081C33.2522 24.8126 33.2727 24.8127 33.2924 24.8082C33.3121 24.8037 33.3305 24.7948 33.3463 24.7822C33.4958 24.6328 33.6375 24.4992 33.795 24.3655H33.8344C34.7946 23.3817 35.8493 22.4943 36.9832 21.7164C38.7838 20.5779 40.656 19.5564 42.5882 18.6584C43.3124 18.2654 49.9959 15.3961 49.1851 14.1383ZM48.2483 15.3411C46.8491 16.3298 45.3505 17.1702 43.7769 17.8487C42.2497 18.6348 40.7146 19.4209 39.2032 20.207C38.0036 20.8299 36.8559 21.5476 35.7709 22.3531C34.8702 23.0429 34.0325 23.8111 33.2676 24.6485C33.9299 23.7505 34.6477 22.8946 35.4167 22.0858V22.0858C36.8002 20.6655 38.2727 19.3344 39.8251 18.1003L39.8802 18.0531C41.2178 16.9297 42.6844 15.9692 44.2492 15.1917C45.1057 14.7814 46.0064 14.4701 46.9336 14.2641C47.9885 14.044 48.8623 13.9733 48.9725 14.327C49.0827 14.6808 48.634 15.0266 48.2483 15.3411V15.3411Z" fill="white"/>
<path d="M39.9586 18.2104C38.5416 19.5703 37.1561 20.9696 35.7706 22.3688C35.125 23.0292 34.4717 23.6895 33.834 24.3498H33.7946L33.0861 25.0573C30.8755 27.1568 28.8379 29.4307 26.9931 31.8571C26.0785 33.1755 25.2879 34.5754 24.6314 36.0392L24.4346 36.4872C24.4346 36.5737 24.3638 36.6523 24.3323 36.7388C24.3093 36.7812 24.2908 36.8261 24.2772 36.8724C23.7261 38.1459 23.2459 39.4508 22.7815 40.7164C22.1281 42.4852 21.6085 44.2854 21.0968 46.0855C21.0941 46.1379 21.0941 46.1904 21.0968 46.2428C21.0968 46.3292 21.0496 46.4078 21.0181 46.4943C20.9866 46.5808 21.0181 46.5729 21.0181 46.6201L20.9473 46.848C20.7898 47.4298 20.6245 48.0115 20.4513 48.5932L19.916 48.3809C20.2132 46.5568 20.6448 44.757 21.2071 42.9962C21.2071 42.9568 21.2071 42.9254 21.2071 42.8861C21.2622 42.7131 21.3173 42.5402 21.3802 42.3673C21.4432 42.1943 21.5141 41.9506 21.5928 41.7384C21.7738 41.2274 21.947 40.7243 22.1281 40.2212C23.1375 37.2608 24.493 34.4297 26.1665 31.7863L26.3161 31.5741L26.3712 31.4876L26.4735 31.3304L26.6467 31.0946C26.7569 30.9531 26.8593 30.8116 26.9695 30.6779L27.0639 30.5522C28.8373 28.4266 30.7519 26.4228 32.7949 24.5542C33.157 24.2083 33.5112 23.8624 33.8812 23.5244L34.4874 22.9584L35.4163 22.1016C36.8805 20.7652 38.3684 19.4603 39.8247 18.116C39.9192 18.0296 40.0294 18.1475 39.9586 18.2104Z" fill="#8F00FF"/>
</svg>
